<?xml version="1.0" standalone="no"?>
<!DOCTYPE svg PUBLIC "-//W3C//DTD SVG 20010904//EN"
 "http://www.w3.org/TR/2001/REC-SVG-20010904/DTD/svg10.dtd">
<svg version="1.0" xmlns="http://www.w3.org/2000/svg"
 width="835.000000pt" height="835.000000pt" viewBox="0 0 835.000000 835.000000"
 preserveAspectRatio="xMidYMid meet">

<g transform="translate(0.000000,835.000000) scale(0.100000,-0.100000)"
fill="#000000" stroke="none">
<path d="M4057 7124 c-27 -8 -69 -27 -92 -42 -45 -28 -2120 -2117 -2165 -2180
l-25 -35 -3 -1800 -2 -1801 26 -78 c33 -101 85 -179 168 -255 81 -74 212 -142
336 -175 l85 -23 1790 0 1790 0 85 23 c124 33 255 101 336 175 83 76 135 154
168 255 l26 78 -2 1801 -3 1800 -25 35 c-45 63 -2120 2152 -2164 2179 -91 57
-226 74 -329 43z m696 -856 c302 -304 763 -771 1026 -1038 l478 -485 -1 -1735
c-1 -1665 -2 -1737 -20 -1783 -42 -108 -167 -202 -311 -232 -105 -22 -3395
-22 -3500 0 -144 30 -269 124 -311 232 -18 46 -19 118 -20 1783 l-2 1734 479
486 c1353 1373 1572 1591 1604 1591 26 0 96 -67 578 -553z"/>
<path d="M4081 4402 c-19 -10 -43 -34 -53 -53 -17 -31 -18 -71 -18 -596 l0
-563 -563 0 c-525 0 -565 -1 -596 -18 -93 -50 -93 -194 0 -244 31 -17 71 -18
596 -18 l563 0 0 -563 c0 -525 1 -565 18 -596 50 -93 194 -93 244 0 17 31 18
71 18 596 l0 563 573 2 c554 3 573 4 599 23 81 59 74 190 -13 237 -31 17 -71
18 -596 18 l-563 0 0 563 c0 525 -1 565 -18 596 -22 41 -74 71 -122 71 -19 0
-51 -8 -69 -18z"/>
</g>
</svg>
