<?xml version="1.0" standalone="no"?>
<!DOCTYPE svg PUBLIC "-//W3C//DTD SVG 20010904//EN"
 "http://www.w3.org/TR/2001/REC-SVG-20010904/DTD/svg10.dtd">
<svg version="1.0" xmlns="http://www.w3.org/2000/svg"
 width="96.000000pt" height="96.000000pt" viewBox="0 0 96.000000 96.000000"
 preserveAspectRatio="xMidYMid meet">

<g transform="translate(0.000000,96.000000) scale(0.100000,-0.100000)"
fill="#000000" stroke="none">
<path d="M434 818 c-83 -62 -314 -263 -314 -273 0 -7 7 -18 15 -25 12 -10 18
-10 30 0 13 11 15 -6 15 -139 0 -148 1 -153 25 -176 l24 -25 251 0 251 0 24
25 c24 23 25 28 25 176 0 133 2 150 15 139 12 -10 18 -10 30 0 8 7 15 18 15
25 0 12 -110 108 -283 248 -32 26 -66 47 -75 47 -10 0 -32 -10 -48 -22z m167
-139 l119 -100 -2 -167 -3 -167 -235 0 -235 0 -3 166 -2 166 117 101 c65 56
119 101 121 101 2 1 57 -44 123 -100z"/>
<path d="M450 510 c0 -27 -3 -30 -30 -30 -27 0 -30 -3 -30 -30 0 -27 3 -30 30
-30 27 0 30 -3 30 -30 0 -27 3 -30 30 -30 27 0 30 3 30 30 0 27 3 30 30 30 27
0 30 3 30 30 0 27 -3 30 -30 30 -27 0 -30 3 -30 30 0 27 -3 30 -30 30 -27 0
-30 -3 -30 -30z"/>
</g>
</svg>
