<?xml version="1.0" standalone="no"?>
<!DOCTYPE svg PUBLIC "-//W3C//DTD SVG 20010904//EN"
 "http://www.w3.org/TR/2001/REC-SVG-20010904/DTD/svg10.dtd">
<svg version="1.0" xmlns="http://www.w3.org/2000/svg"
 width="835.000000pt" height="835.000000pt" viewBox="0 0 835.000000 835.000000"
 preserveAspectRatio="xMidYMid meet">

<g transform="translate(0.000000,835.000000) scale(0.100000,-0.100000)"
fill="#000000" stroke="none">
<path d="M4020 7173 c-14 -9 -27 -19 -30 -22 -3 -4 -23 -19 -44 -35 -22 -17
-126 -116 -232 -222 -165 -165 -269 -286 -359 -419 -24 -34 -138 -265 -154
-310 -22 -64 -54 -204 -64 -285 -12 -97 -13 -389 -2 -529 8 -102 3 -115 -45
-104 -43 10 -235 75 -245 83 -5 4 -53 17 -105 30 -52 13 -103 27 -114 32 -27
15 -173 30 -331 35 -123 4 -156 1 -270 -22 -162 -32 -217 -46 -230 -55 -5 -4
-39 -17 -75 -29 -76 -26 -218 -94 -276 -133 -23 -16 -45 -28 -48 -28 -18 0
-195 -137 -231 -178 -39 -45 -43 -59 -44 -169 -1 -81 4 -106 35 -200 19 -60
44 -127 55 -150 10 -24 19 -46 19 -51 0 -16 66 -137 113 -209 26 -40 47 -74
47 -77 0 -47 419 -466 466 -466 2 0 23 -12 47 -27 49 -32 167 -93 179 -93 5 0
27 -9 51 -19 56 -26 175 -64 267 -86 91 -22 125 -38 146 -70 24 -37 12 -64
-61 -140 -36 -37 -78 -84 -93 -104 -15 -20 -33 -42 -40 -50 -16 -16 -87 -112
-117 -156 -32 -48 -122 -234 -144 -300 -11 -33 -31 -106 -45 -162 -25 -96 -26
-116 -26 -360 0 -267 3 -296 51 -488 52 -207 91 -288 180 -375 84 -81 99 -86
266 -76 223 12 288 22 504 76 131 32 158 41 226 71 24 11 46 19 51 19 11 0
169 80 207 105 78 51 168 128 280 240 153 153 236 259 288 366 15 32 34 62 42
69 22 19 60 -11 90 -70 14 -28 43 -74 65 -103 22 -28 40 -57 40 -64 0 -16 307
-323 323 -323 7 0 36 -18 65 -40 29 -22 55 -40 58 -40 3 0 25 -12 48 -28 57
-38 159 -86 236 -113 36 -12 70 -25 75 -29 15 -11 379 -97 463 -109 39 -6 103
-16 141 -22 37 -7 104 -10 149 -7 65 4 85 9 110 29 61 49 76 96 132 415 14 81
13 650 -1 728 -24 131 -73 315 -100 373 -10 24 -19 47 -19 51 0 19 -105 217
-151 287 -27 40 -49 77 -49 81 0 5 -23 33 -50 63 -27 30 -61 78 -75 107 -26
52 -26 55 -9 83 21 35 68 62 149 85 129 37 162 48 202 67 24 10 46 19 51 19
12 0 171 82 219 113 24 15 46 27 50 27 5 0 22 12 38 28 17 15 48 40 70 57 100
75 415 410 415 441 0 3 21 37 47 77 45 69 173 312 173 330 0 4 10 27 21 50 16
31 23 67 27 139 2 54 2 108 -2 122 -7 29 -79 103 -142 145 -25 17 -47 31 -50
31 -2 0 -23 12 -47 27 -23 15 -67 40 -97 56 -30 16 -62 35 -71 43 -8 8 -21 14
-28 14 -7 0 -40 13 -74 29 -79 38 -214 83 -344 115 -97 25 -115 26 -373 26
-258 0 -276 -1 -373 -26 -114 -28 -201 -56 -264 -85 -24 -10 -47 -19 -52 -19
-5 0 -22 -7 -37 -15 -16 -8 -41 -15 -56 -15 l-28 0 0 297 c0 163 -4 323 -10
355 -5 32 -15 86 -21 121 -17 95 -74 261 -132 377 -52 107 -64 126 -129 214
-21 28 -38 56 -38 63 0 14 -339 356 -395 398 -21 17 -56 46 -77 65 -47 43 -63
48 -158 49 -56 1 -82 -3 -100 -16z m354 -2702 c95 -48 120 -66 201 -146 50
-51 97 -107 104 -126 8 -19 25 -58 38 -88 32 -67 63 -183 63 -236 0 -22 -7
-74 -15 -115 -44 -212 -130 -354 -275 -454 -57 -39 -151 -86 -173 -86 -7 0
-17 -4 -23 -10 -5 -5 -49 -17 -97 -27 -82 -16 -92 -16 -179 1 -71 14 -122 32
-217 78 -170 84 -224 139 -312 314 l-64 129 -3 120 c-4 127 10 213 47 278 10
18 21 44 24 58 10 39 74 127 134 186 38 36 89 68 176 111 67 33 131 63 142 65
11 3 88 5 170 4 l150 -2 109 -54z"/>
</g>
</svg>
