<?xml version="1.0" standalone="no"?>
<!DOCTYPE svg PUBLIC "-//W3C//DTD SVG 20010904//EN"
 "http://www.w3.org/TR/2001/REC-SVG-20010904/DTD/svg10.dtd">
<svg version="1.0" xmlns="http://www.w3.org/2000/svg"
 width="512.000000pt" height="512.000000pt" viewBox="0 0 512.000000 512.000000"
 preserveAspectRatio="xMidYMid meet">

<g transform="translate(0.000000,512.000000) scale(0.100000,-0.100000)"
fill="#000000" stroke="none">
<path d="M2360 4469 c-378 -43 -764 -208 -1034 -444 l-76 -66 0 174 c0 163 -2
177 -23 218 -47 88 -164 114 -237 52 -61 -51 -60 -44 -60 -486 0 -403 0 -404
23 -437 12 -18 35 -43 50 -54 28 -20 40 -21 432 -24 388 -3 406 -2 444 17 112
58 113 224 0 281 -34 18 -59 20 -226 20 l-188 1 55 50 c122 113 353 244 534
304 323 108 687 108 1012 0 109 -36 303 -133 399 -199 452 -313 717 -843 692
-1386 -34 -740 -551 -1345 -1283 -1502 -146 -31 -444 -33 -599 -4 -611 114
-1101 564 -1258 1157 -33 123 -46 208 -56 357 -8 131 -16 152 -75 196 -39 29
-133 29 -172 0 -73 -54 -86 -116 -65 -317 71 -680 476 -1258 1083 -1546 249
-119 475 -175 748 -188 311 -14 622 50 908 187 402 193 711 502 902 903 345
724 210 1570 -345 2156 -251 266 -630 476 -990 549 -196 40 -412 52 -595 31z"/>
<path d="M2495 3346 c-41 -18 -83 -69 -90 -109 -3 -18 -5 -231 -3 -474 3 -430
4 -442 24 -470 45 -60 62 -66 515 -156 239 -48 457 -87 485 -87 87 0 154 61
161 147 5 58 -25 117 -74 146 -20 11 -176 47 -410 93 -207 41 -378 74 -380 74
-1 0 -4 168 -5 374 -3 360 -4 376 -24 402 -11 15 -32 37 -46 47 -33 25 -113
32 -153 13z"/>
</g>
</svg>
