<?xml version="1.0" standalone="no"?>
<!DOCTYPE svg PUBLIC "-//W3C//DTD SVG 20010904//EN"
 "http://www.w3.org/TR/2001/REC-SVG-20010904/DTD/svg10.dtd">
<svg version="1.0" xmlns="http://www.w3.org/2000/svg"
 width="512.000000pt" height="512.000000pt" viewBox="0 0 512.000000 512.000000"
 preserveAspectRatio="xMidYMid meet">

<g transform="translate(0.000000,512.000000) scale(0.100000,-0.100000)"
fill="#000000" stroke="none">
<path d="M2560 3731 l0 -531 -49 0 c-210 0 -506 -61 -733 -150 -414 -165 -794
-482 -1027 -858 -213 -342 -321 -724 -321 -1130 l0 -156 46 74 c105 169 282
371 434 495 177 145 410 273 626 345 240 79 396 100 764 100 l260 0 2 -531 3
-531 1062 849 c584 466 1062 850 1062 853 1 5 -2107 1693 -2120 1698 -5 2 -9
-235 -9 -527z"/>
</g>
</svg>
